<?xml version="1.0" encoding="UTF-8"?>
<svg version="1.1" xmlns="http://www.w3.org/2000/svg" width="64" height="64">
<path d="M0 0 C21.12 0 42.24 0 64 0 C64 21.12 64 42.24 64 64 C42.88 64 21.76 64 0 64 C0 42.88 0 21.76 0 0 Z " fill="#79C40E" transform="translate(0,0)"/>
<path d="M0 0 C2.31 0 4.62 0 7 0 C7 8.25 7 16.5 7 25 C7.66 25 8.32 25 9 25 C9.268125 24.401875 9.53625 23.80375 9.8125 23.1875 C11 21 11 21 12.53125 19.6875 C14.50346381 17.42155222 14.49498773 15.77718898 14.6875 12.8125 C14.75324219 11.91144531 14.81898437 11.01039062 14.88671875 10.08203125 C14.92410156 9.39496094 14.96148437 8.70789062 15 8 C19.18736668 7.91239819 23.37449531 7.85940565 27.5625 7.8125 C29.33463867 7.77479492 29.33463867 7.77479492 31.14257812 7.73632812 C37.5037117 7.68287322 42.47585783 7.6762174 48 11 C50.36285193 14.54427789 50.58847205 16.54351454 50.52734375 20.70703125 C49.57723395 24.83824944 46.44167343 26.81975439 43 29 C42.01 29.495 42.01 29.495 41 30 C41 30.66 41 31.32 41 32 C41.61488281 32.30292969 42.22976562 32.60585938 42.86328125 32.91796875 C51.54154006 37.41626877 51.54154006 37.41626877 53 42 C53.2729158 46.98526198 52.75014554 50.07674396 49.5625 54 C45.45714167 57.20418211 43.2217616 57.11878765 38.0234375 57.09765625 C36.99556625 57.09553383 36.99556625 57.09553383 35.94692993 57.09336853 C33.75624239 57.08776675 31.5656567 57.07521406 29.375 57.0625 C27.89062648 57.05748522 26.40625135 57.05292228 24.921875 57.04882812 C21.28121685 57.03779677 17.64061836 57.02053099 14 57 C14.66753936 51.92579112 15.70426744 47.44924967 17.4375 42.625 C18.08525391 40.78808594 18.08525391 40.78808594 18.74609375 38.9140625 C20 36 20 36 22 35 C20.82144268 41.70774643 19.52351686 48.36181939 18 55 C20.07562119 54.02752741 22.13507469 53.0205178 24.1875 52 C25.33605469 51.443125 26.48460938 50.88625 27.66796875 50.3125 C31.83876158 47.75192728 34.27091931 44.5718376 36 40 C36.67512167 35.74236068 36.74498832 31.55503478 36.75 27.25 C36.78319417 25.02599055 36.81952016 22.80202506 36.859375 20.578125 C36.86420898 19.60262695 36.86904297 18.62712891 36.87402344 17.62207031 C36.98765989 15.25684642 37.32735758 13.26130881 38 11 C27.2560123 14.10859377 16.42685516 17.25291686 9.875 27.0625 C6.6851134 33.56582515 6.73280932 42.19842796 9 49 C9.29098034 54.04936467 9.31036161 59.08614397 8 64 C5.36 64 2.72 64 0 64 C0 42.88 0 21.76 0 0 Z " fill="#FCFDFA" transform="translate(0,0)"/>
<path d="M0 0 C7.59 0 15.18 0 23 0 C23 21.12 23 42.24 23 64 C17.39 64 11.78 64 6 64 C6.99 63.34 7.98 62.68 9 62 C13.64396757 58.56615315 16.97168968 55.94134849 18 50 C18.82602711 43.18527637 18.01458723 39.32017381 14.0546875 33.73828125 C13 32 13 32 13.0625 29.375 C13.371875 28.59125 13.68125 27.8075 14 27 C16.2366844 21.21093449 17.59865335 15.62529263 15.0078125 9.75 C11.58778575 4.49436567 7.99339257 2.7949009 1.9765625 1.375 C0.99816406 1.189375 0.99816406 1.189375 0 1 C0 0.67 0 0.34 0 0 Z " fill="#FCFDF9" transform="translate(41,0)"/>
<path d="M0 0 C0.14601614 3.54122827 0.2343056 7.08167644 0.3125 10.625 C0.35439453 11.62402344 0.39628906 12.62304688 0.43945312 13.65234375 C0.57765545 21.99976393 0.57765545 21.99976393 -2.26953125 25.6484375 C-4.86271266 27.88176398 -5.81814354 28.38596498 -9 29 C-8.52504948 25.89517294 -8.04431252 22.79126899 -7.5625 19.6875 C-7.42779297 18.80642578 -7.29308594 17.92535156 -7.15429688 17.01757812 C-7.02216797 16.17001953 -6.89003906 15.32246094 -6.75390625 14.44921875 C-6.63345947 13.66893311 -6.5130127 12.88864746 -6.38891602 12.0847168 C-6 10 -6 10 -5 7 C-9.1828208 10.99741208 -12.55681651 15.28533897 -15.95703125 19.97851562 C-16.95075131 21.33435401 -17.97281833 22.66933284 -19 24 C-19.33 24 -19.66 24 -20 24 C-20.58997891 18.66833878 -20.75822946 14.29142248 -17.625 9.75 C-13.09391222 4.44215431 -7.08398662 0 0 0 Z " fill="#F5FAEE" transform="translate(32,18)"/>
<path d="M0 0 C1.04940487 3.14821462 0.98606526 3.9349491 0.22265625 7.01171875 C0.03896484 7.76904297 -0.14472656 8.52636719 -0.33398438 9.30664062 C-0.53314453 10.09232422 -0.73230469 10.87800781 -0.9375 11.6875 C-1.13279297 12.48478516 -1.32808594 13.28207031 -1.52929688 14.10351562 C-2.01228382 16.07080389 -2.5051963 18.03565054 -3 20 C-2.34 20.33 -1.68 20.66 -1 21 C-2 22 -2 22 -4.5625 22.0625 C-5.366875 22.041875 -6.17125 22.02125 -7 22 C-6.42208517 16.89070756 -5.2819361 12.48388389 -3.5 7.625 C-3.0565625 6.40039062 -2.613125 5.17578125 -2.15625 3.9140625 C-1 1 -1 1 0 0 Z " fill="#F0F8E4" transform="translate(21,35)"/>
<path d="M0 0 C1.23922223 3.71766668 0.57018942 5.43889537 -0.4375 9.1875 C-0.72496094 10.27417969 -1.01242188 11.36085938 -1.30859375 12.48046875 C-1.53675781 13.31191406 -1.76492187 14.14335938 -2 15 C-2.99 14.34 -3.98 13.68 -5 13 C-4.54554036 11.58208592 -4.08625056 10.16571954 -3.625 8.75 C-3.24214844 7.56664062 -3.24214844 7.56664062 -2.8515625 6.359375 C-2.04826333 4.13372042 -1.10288338 2.09068328 0 0 Z " fill="#E0F1C8" transform="translate(21,35)"/>
</svg>
